<svg width="46" height="44" viewBox="0 0 46 44" fill="none" xmlns="http://www.w3.org/2000/svg">
<g id="op&#195;&#167;&#195;&#163;o pizza">
<path id="Vector" d="M3.22354 9.85073C3.11851 9.6778 3.04862 9.48586 3.01787 9.28589C2.98712 9.08591 2.99612 8.88184 3.04435 8.68535C3.09258 8.48886 3.17909 8.30381 3.29894 8.14081C3.41878 7.9778 3.5696 7.84003 3.74276 7.73539C9.55168 4.22184 16.2112 2.3645 23 2.3645C29.7889 2.3645 36.4483 4.22184 42.2573 7.73539C42.4304 7.84003 42.5812 7.9778 42.7011 8.14081C42.8209 8.30381 42.9074 8.48886 42.9557 8.68535C43.0039 8.88184 43.0129 9.08591 42.9821 9.28589C42.9514 9.48586 42.8815 9.6778 42.7765 9.85073L24.3154 40.0923C24.1785 40.3193 23.9852 40.507 23.7545 40.6373C23.5237 40.7676 23.2631 40.8361 22.9981 40.8361C22.7331 40.8361 22.4725 40.7676 22.2417 40.6373C22.0109 40.507 21.8177 40.3193 21.6808 40.0923L3.22354 9.85073Z" stroke="white" stroke-width="4.61528" stroke-linecap="round" stroke-linejoin="round"/>
<path id="Vector_2" d="M28.0007 34.0598C27.2313 33.6836 26.549 33.1509 25.9973 32.4959C25.4456 31.8409 25.0367 31.0779 24.7967 30.2558C24.5568 29.4337 24.4911 28.5705 24.6039 27.7216C24.7166 26.8726 25.0053 26.0565 25.4515 25.3256C25.8977 24.5946 26.4916 23.9648 27.1951 23.4764C27.8987 22.9881 28.6964 22.652 29.5373 22.4896C30.3781 22.3272 31.2436 22.3422 32.0784 22.5335C32.9132 22.7247 33.6989 23.0882 34.3851 23.6005" stroke="white" stroke-width="4.61528" stroke-linecap="round" stroke-linejoin="round"/>
<path id="Vector_3" d="M6.47638 15.1779C11.3429 11.8458 17.1031 10.0628 23.001 10.0628C28.8989 10.0628 34.6591 11.8458 39.5256 15.1779" stroke="white" stroke-width="4.61528" stroke-linecap="round" stroke-linejoin="round"/>
<path id="Vector_4" d="M8.08942 17.82C8.76045 17.2111 9.55768 16.7578 10.4242 16.4927C11.2906 16.2276 12.205 16.157 13.1019 16.2862C13.9987 16.4154 14.856 16.741 15.6125 17.2398C16.369 17.7387 17.0059 18.3984 17.4779 19.172C17.9498 19.9455 18.2451 20.8137 18.3427 21.7146C18.4403 22.6154 18.3377 23.5267 18.0422 24.3833C17.7468 25.24 17.2659 26.0208 16.6337 26.67C16.0016 27.3192 15.2339 27.8208 14.3854 28.139" stroke="white" stroke-width="4.61528" stroke-linecap="round" stroke-linejoin="round"/>
</g>
</svg>
