<svg width="46" height="46" viewBox="0 0 46 46" fill="none" xmlns="http://www.w3.org/2000/svg">
<g id="op&#195;&#167;&#195;&#163;o bebidas">
<path id="Vector" d="M37.0739 3.22052L42.9999 9.14655" stroke="white" stroke-width="4.44452" stroke-linecap="round" stroke-linejoin="round"/>
<path id="Vector_2" d="M38.5558 4.70206L26.7037 13.5911L19.2961 15.0726L3.86809 30.5007C3.59287 30.7758 3.37456 31.1025 3.22561 31.462C3.07666 31.8216 3 32.2069 3 32.5961C3 32.9852 3.07666 33.3706 3.22561 33.7301C3.37456 34.0897 3.59287 34.4163 3.86809 34.6915L11.5293 42.3527C11.8045 42.628 12.1312 42.8463 12.4907 42.9952C12.8502 43.1442 13.2356 43.2208 13.6247 43.2208C14.0139 43.2208 14.3993 43.1442 14.7588 42.9952C15.1183 42.8463 15.445 42.628 15.7202 42.3527L31.1482 26.9247L32.6297 19.5171L41.5188 7.66507" stroke="white" stroke-width="4.44452" stroke-linecap="round" stroke-linejoin="round"/>
<path id="Vector_3" d="M16.3329 18.0356L28.185 29.8877" stroke="white" stroke-width="4.44452" stroke-linecap="round" stroke-linejoin="round"/>
<path id="Vector_4" d="M19.2957 38.7767L7.44366 26.9247" stroke="white" stroke-width="4.44452" stroke-linecap="round" stroke-linejoin="round"/>
</g>
</svg>
