<svg width="46" height="41" viewBox="0 0 46 41" fill="none" xmlns="http://www.w3.org/2000/svg">
<g id="op&#195;&#167;&#195;&#163;o hamburguer">
<path id="Vector" d="M3 31.2975L11.4615 28.2205L19.1538 31.2975L26.8462 28.2205L34.5385 31.2975L43 28.2205" stroke="white" stroke-width="4.61539" stroke-linecap="round" stroke-linejoin="round"/>
<path id="Vector_2" d="M3 21.2975H43" stroke="white" stroke-width="4.61539" stroke-linecap="round" stroke-linejoin="round"/>
<path id="Vector_3" d="M38.3848 29.8994V32.0667C38.3848 33.6988 37.7365 35.2641 36.5824 36.4182C35.4283 37.5722 33.8631 38.2206 32.231 38.2206H13.7694C12.1373 38.2206 10.5721 37.5722 9.41802 36.4182C8.26395 35.2641 7.6156 33.6988 7.6156 32.0667V29.6187" stroke="white" stroke-width="4.61539" stroke-linecap="round" stroke-linejoin="round"/>
<path id="Vector_4" d="M7.65405 14.3745C7.4117 14.3795 7.1716 14.3271 6.95331 14.2217C6.73503 14.1163 6.54473 13.9609 6.39795 13.7679C6.25116 13.575 6.15204 13.3502 6.10865 13.1117C6.06526 12.8732 6.07884 12.6279 6.14828 12.3956C7.90212 6.92061 14.781 2.836 23.0002 2.836C31.2194 2.836 38.1002 6.92254 39.8521 12.3995C39.9208 12.6315 39.9338 12.8764 39.8901 13.1144C39.8464 13.3524 39.7471 13.5767 39.6004 13.7691C39.4537 13.9615 39.2637 14.1166 39.0458 14.2218C38.8279 14.327 38.5883 14.3793 38.3464 14.3745H7.65405Z" stroke="white" stroke-width="4.61539" stroke-linecap="round" stroke-linejoin="round"/>
</g>
</svg>
