<svg width="30" height="29" viewBox="0 0 30 29" fill="none" xmlns="http://www.w3.org/2000/svg">
<g id="hist&#195;&#179;rico">
<path id="Vector" d="M15.4189 7.68237V14.5006L21.1008 17.9096" stroke="white" stroke-width="3.40909" stroke-linecap="round" stroke-linejoin="round"/>
<path id="Vector_2" d="M7.46453 11.0914H1.78271V5.40961" stroke="white" stroke-width="3.40909" stroke-linecap="round" stroke-linejoin="round"/>
<path id="Vector_3" d="M6.83953 23.5915C8.62642 25.2776 10.8706 26.3997 13.2916 26.8178C15.7126 27.2358 18.2031 26.9311 20.4519 25.9417C22.7007 24.9524 24.6081 23.3223 25.9358 21.2551C27.2635 19.188 27.9526 16.7754 27.917 14.3188C27.8814 11.8622 27.1226 9.47064 25.7356 7.44282C24.3485 5.415 22.3947 3.84089 20.1181 2.91717C17.8415 1.99345 15.3433 1.76107 12.9354 2.24908C10.5275 2.73709 8.31685 3.92385 6.57959 5.66106C4.90771 7.35424 3.52703 8.95083 1.78271 11.0915" stroke="white" stroke-width="3.40909" stroke-linecap="round" stroke-linejoin="round"/>
</g>
</svg>
