<svg width="31" height="28" viewBox="0 0 31 28" fill="none" xmlns="http://www.w3.org/2000/svg">
<g id="carrinho">
<path id="Vector" d="M10.591 27.5C11.9864 27.5 13.1176 26.3807 13.1176 25C13.1176 23.6193 11.9864 22.5 10.591 22.5C9.19563 22.5 8.06445 23.6193 8.06445 25C8.06445 26.3807 9.19563 27.5 10.591 27.5Z" fill="white"/>
<path id="Vector_2" d="M23.7297 27.5C25.1251 27.5 26.2562 26.3807 26.2562 25C26.2562 23.6193 25.1251 22.5 23.7297 22.5C22.3343 22.5 21.2031 23.6193 21.2031 25C21.2031 26.3807 22.3343 27.5 23.7297 27.5Z" fill="white"/>
<g id="Vector_3">
<path d="M5.82744 7.00001H28.7825L25.335 18.0888C25.2077 18.4976 24.9513 18.8553 24.6034 19.1093C24.2555 19.3633 23.8345 19.5002 23.4022 19.5H10.9614C10.5221 19.5002 10.0947 19.3588 9.74393 19.0971C9.39313 18.8355 9.13802 18.4679 9.01722 18.05L4.59575 2.72501C4.5352 2.51554 4.40717 2.33136 4.23113 2.2005C4.0551 2.06963 3.84068 1.99923 3.6205 2.00001H2.00098" fill="#D95A11"/>
<path d="M5.82744 7.00001H28.7825L25.335 18.0888C25.2077 18.4976 24.9513 18.8553 24.6034 19.1093C24.2555 19.3633 23.8345 19.5002 23.4022 19.5H10.9614C10.5221 19.5002 10.0947 19.3588 9.74393 19.0971C9.39313 18.8355 9.13802 18.4679 9.01722 18.05L4.59575 2.72501C4.5352 2.51554 4.40717 2.33136 4.23113 2.2005C4.0551 2.06963 3.84068 1.99923 3.6205 2.00001H2.00098" stroke="white" stroke-width="3" stroke-linecap="round" stroke-linejoin="round"/>
</g>
</g>
</svg>
