<svg width="26" height="26" viewBox="0 0 26 26" fill="none" xmlns="http://www.w3.org/2000/svg">
<g clip-path="url(#clip0_209_140)">
<path d="M7.58323 26.0007C8.77984 26.0007 9.74989 25.0306 9.74989 23.834C9.74989 22.6374 8.77984 21.6674 7.58323 21.6674C6.38661 21.6674 5.41656 22.6374 5.41656 23.834C5.41656 25.0306 6.38661 26.0007 7.58323 26.0007Z" fill="white"/>
<path d="M18.4167 26.0007C19.6133 26.0007 20.5833 25.0306 20.5833 23.834C20.5833 22.6374 19.6133 21.6674 18.4167 21.6674C17.22 21.6674 16.25 22.6374 16.25 23.834C16.25 25.0306 17.22 26.0007 18.4167 26.0007Z" fill="white"/>
<path d="M24.8993 6.5195C24.1367 5.7903 23.1159 5.39364 22.061 5.41667H6.12517L5.84025 3.18283C5.73679 2.30608 5.31524 1.49777 4.65552 0.911123C3.99579 0.324478 3.14375 0.0002837 2.26092 0L1.625 0C1.19402 0 0.780698 0.171205 0.475951 0.475951C0.171205 0.780698 0 1.19402 0 1.625H0C0 2.05598 0.171205 2.4693 0.475951 2.77405C0.780698 3.0788 1.19402 3.25 1.625 3.25H2.26092C2.34954 3.25095 2.43467 3.28469 2.49989 3.3447C2.56511 3.40472 2.60579 3.48676 2.61408 3.575L4.23908 16.3139C4.34158 17.1913 4.76274 18.0006 5.42259 18.5879C6.08244 19.1753 6.93502 19.4999 7.81842 19.5H18.7839C20.0883 19.4992 21.3564 19.0704 22.3936 18.2794C23.4308 17.4884 24.1798 16.3789 24.5256 15.1212L25.8754 10.2126C26.0554 9.56579 26.0598 8.88274 25.8882 8.23366C25.7167 7.58459 25.3754 6.99292 24.8993 6.5195ZM21.3958 14.2599C21.2372 14.8312 20.8961 15.3349 20.4245 15.6942C19.9529 16.0535 19.3768 16.2487 18.7839 16.25H7.81842C7.72984 16.2493 7.6447 16.2156 7.57961 16.1555C7.51452 16.0954 7.47414 16.0132 7.46633 15.925L6.54008 8.66667H22.2235C22.3072 8.66604 22.3899 8.68481 22.4651 8.7215C22.5403 8.75818 22.6059 8.81179 22.6569 8.87812C22.708 8.94445 22.7429 9.0217 22.759 9.1038C22.7752 9.1859 22.7721 9.27063 22.75 9.35133L21.3958 14.2599Z" fill="white"/>
</g>
<defs>
<clipPath id="clip0_209_140">
<rect width="26" height="26" fill="white"/>
</clipPath>
</defs>
</svg>
