<svg width="30" height="26" viewBox="0 0 30 26" fill="none" xmlns="http://www.w3.org/2000/svg">
<g clip-path="url(#clip0_209_148)">
<path d="M14.6956 25.4168L13.6351 24.7538C12.239 23.8807 -3.31908e-05 16.0146 -3.31908e-05 8.82882C-0.079218 6.81544 0.745855 4.8562 2.29484 3.37938C3.84382 1.90255 5.99072 1.02824 8.26627 0.947571C9.52233 0.95849 10.7581 1.22942 11.8745 1.73866C12.991 2.24789 13.9571 2.9813 14.6956 3.88015C15.4341 2.9813 16.4003 2.24789 17.5167 1.73866C18.6332 1.22942 19.8689 0.95849 21.125 0.947571C23.4005 1.02824 25.5474 1.90255 27.0964 3.37938C28.6454 4.8562 29.4705 6.81544 29.3913 8.82882C29.3913 16.0146 17.1522 23.8807 15.7562 24.7538L14.6956 25.4168ZM8.26627 4.19757C6.96567 4.27909 5.75391 4.81116 4.89409 5.67825C4.03427 6.54535 3.5958 7.67747 3.67388 8.82882C3.67388 13.0712 10.8539 18.8063 14.6956 21.4074C18.5373 18.8074 25.7174 13.0712 25.7174 8.82882C25.7954 7.67747 25.357 6.54535 24.4972 5.67825C23.6373 4.81116 22.4256 4.27909 21.125 4.19757C19.8244 4.27909 18.6126 4.81116 17.7528 5.67825C16.893 6.54535 16.4545 7.67747 16.5326 8.82882H12.8587C12.9367 7.67747 12.4983 6.54535 11.6385 5.67825C10.7786 4.81116 9.56688 4.27909 8.26627 4.19757V4.19757Z" fill="white"/>
</g>
<defs>
<clipPath id="clip0_209_148">
<rect width="29.3913" height="26" fill="white"/>
</clipPath>
</defs>
</svg>
