<svg width="26" height="26" viewBox="0 0 26 26" fill="none" xmlns="http://www.w3.org/2000/svg">
<g clip-path="url(#clip0_208_134)">
<path d="M13 0C9.82011 0.00934819 6.75327 1.1806 4.37668 3.29333L2.93259 1.84925C2.78109 1.69779 2.58808 1.59465 2.37796 1.55287C2.16784 1.51109 1.95006 1.53254 1.75213 1.61452C1.55421 1.69649 1.38503 1.83531 1.26599 2.01342C1.14695 2.19153 1.08339 2.40094 1.08334 2.61517V7.58333C1.08334 7.87065 1.19748 8.1462 1.40064 8.34936C1.60381 8.55253 1.87936 8.66667 2.16668 8.66667H7.13484C7.34907 8.66662 7.55848 8.60306 7.73659 8.48402C7.9147 8.36498 8.05352 8.1958 8.13549 7.99788C8.21747 7.79995 8.23892 7.58216 8.19714 7.37205C8.15536 7.16193 8.05222 6.96892 7.90076 6.81742L6.67118 5.58783C8.10605 4.36208 9.86581 3.57909 11.737 3.33383C13.6081 3.08858 15.5102 3.39162 17.2125 4.20618C18.9148 5.02074 20.3441 6.31182 21.3271 7.92277C22.31 9.53371 22.8043 11.3953 22.75 13.2817C22.6803 15.719 21.6999 18.0418 20.0021 19.7919C18.3043 21.542 16.0123 22.5925 13.5782 22.7361C11.1441 22.8797 8.7445 22.106 6.85268 20.5677C4.96087 19.0293 3.71413 16.8379 3.35834 14.4257C3.30754 14.0334 3.11636 13.6729 2.82019 13.4108C2.52402 13.1487 2.14292 13.0027 1.74743 13V13C1.51794 12.997 1.29046 13.0431 1.08019 13.1351C0.869912 13.227 0.681686 13.3628 0.528079 13.5333C0.374473 13.7039 0.259024 13.9052 0.189444 14.1239C0.119864 14.3426 0.0977543 14.5736 0.124593 14.8016C0.575488 17.993 2.19418 20.9038 4.66744 22.9706C7.1407 25.0375 10.2927 26.1134 13.5135 25.9902C16.7719 25.8333 19.855 24.4684 22.1617 22.1617C24.4684 19.855 25.8333 16.7719 25.9903 13.5135C26.0574 11.7649 25.7712 10.0207 25.1488 8.38529C24.5265 6.74983 23.5806 5.2567 22.368 3.99516C21.1553 2.73363 19.7006 1.72962 18.091 1.04316C16.4814 0.356709 14.7499 0.00191565 13 0V0Z" fill="white"/>
<path d="M12.4584 7.58264C12.0275 7.58264 11.6141 7.75385 11.3094 8.05859C11.0046 8.36334 10.8334 8.77666 10.8334 9.20764V13.8584C10.8336 14.433 11.0619 14.984 11.4683 15.3902L13.4107 17.3326C13.7172 17.6286 14.1276 17.7924 14.5537 17.7887C14.9798 17.785 15.3873 17.6141 15.6886 17.3128C15.9899 17.0115 16.1608 16.604 16.1645 16.1779C16.1682 15.7518 16.0044 15.3414 15.7084 15.0349L14.0834 13.4099V9.20764C14.0834 8.77666 13.9122 8.36334 13.6075 8.05859C13.3027 7.75385 12.8894 7.58264 12.4584 7.58264Z" fill="white"/>
</g>
<defs>
<clipPath id="clip0_208_134">
<rect width="26" height="26" fill="white"/>
</clipPath>
</defs>
</svg>
