<svg width="26" height="27" viewBox="0 0 26 27" fill="none" xmlns="http://www.w3.org/2000/svg">
<path id="Vector" d="M16 24.0006V18.0006C16 17.7354 15.8946 17.481 15.7071 17.2935C15.5196 17.1059 15.2652 17.0006 15 17.0006H11C10.7348 17.0006 10.4804 17.1059 10.2929 17.2935C10.1054 17.481 10 17.7354 10 18.0006V24.0006C10 24.2658 9.89464 24.5202 9.70711 24.7077C9.51957 24.8952 9.26522 25.0006 9 25.0006H3C2.73478 25.0006 2.48043 24.8952 2.29289 24.7077C2.10536 24.5202 2 24.2658 2 24.0006V12.4431C2.00001 12.3037 2.02915 12.1659 2.08555 12.0385C2.14195 11.9111 2.22436 11.7968 2.3275 11.7031L12.3275 2.26059C12.5116 2.093 12.7516 2.00012 13.0006 2.00012C13.2496 2.00012 13.4896 2.093 13.6737 2.26059L23.6737 11.7031C23.7769 11.7968 23.8593 11.9111 23.9157 12.0385C23.9721 12.1659 24.0012 12.3037 24.0012 12.4431V24.0006C24.0012 24.2658 23.8959 24.5202 23.7084 24.7077C23.5208 24.8952 23.2665 25.0006 23.0012 25.0006H17C16.7348 25.0006 16.4804 24.8952 16.2929 24.7077C16.1054 24.5202 16 24.2658 16 24.0006Z" stroke="white" stroke-width="3" stroke-linecap="round" stroke-linejoin="round"/>
</svg>
