<svg width="26" height="27" viewBox="0 0 26 27" fill="none" xmlns="http://www.w3.org/2000/svg">
<path id="Vector" d="M16 24.0005V18.0005C16 17.7353 15.8946 17.4809 15.7071 17.2934C15.5196 17.1058 15.2652 17.0005 15 17.0005H11C10.7348 17.0005 10.4804 17.1058 10.2929 17.2934C10.1054 17.4809 10 17.7353 10 18.0005V24.0005C10 24.2657 9.89464 24.52 9.70711 24.7076C9.51957 24.8951 9.26522 25.0005 9 25.0005H3C2.73478 25.0005 2.48043 24.8951 2.29289 24.7076C2.10536 24.52 2 24.2657 2 24.0005V12.443C2.00001 12.3036 2.02915 12.1658 2.08555 12.0384C2.14195 11.9109 2.22436 11.7967 2.3275 11.703L12.3275 2.26047C12.5116 2.09288 12.7516 2 13.0006 2C13.2496 2 13.4896 2.09288 13.6737 2.26047L23.6737 11.703C23.7769 11.7967 23.8593 11.9109 23.9157 12.0384C23.9721 12.1658 24.0012 12.3036 24.0012 12.443V24.0005C24.0012 24.2657 23.8959 24.52 23.7084 24.7076C23.5208 24.8951 23.2665 25.0005 23.0012 25.0005H17C16.7348 25.0005 16.4804 24.8951 16.2929 24.7076C16.1054 24.52 16 24.2657 16 24.0005Z" stroke="#D95A11" stroke-width="3" stroke-linecap="round" stroke-linejoin="round"/>
</svg>
