<svg width="31" height="28" viewBox="0 0 31 28" fill="none" xmlns="http://www.w3.org/2000/svg">
<g id="carrinho">
<path id="Vector" d="M10.5903 27.5C11.9857 27.5 13.1168 26.3807 13.1168 25C13.1168 23.6193 11.9857 22.5 10.5903 22.5C9.1949 22.5 8.06372 23.6193 8.06372 25C8.06372 26.3807 9.1949 27.5 10.5903 27.5Z" fill="white"/>
<path id="Vector_2" d="M23.7285 27.5C25.1238 27.5 26.255 26.3807 26.255 25C26.255 23.6193 25.1238 22.5 23.7285 22.5C22.3331 22.5 21.2019 23.6193 21.2019 25C21.2019 26.3807 22.3331 27.5 23.7285 27.5Z" fill="white"/>
<g id="Vector_3">
<path d="M5.82647 7.00001H28.7815L25.334 18.0888C25.2067 18.4976 24.9503 18.8553 24.6024 19.1093C24.2546 19.3633 23.8335 19.5002 23.4012 19.5H10.9604C10.5211 19.5002 10.0938 19.3588 9.74295 19.0971C9.39216 18.8355 9.13705 18.4679 9.01624 18.05L4.59477 2.72501C4.53422 2.51554 4.40619 2.33136 4.23016 2.2005C4.05412 2.06963 3.8397 1.99923 3.61952 2.00001H2" fill="#D95A11"/>
<path d="M5.82647 7.00001H28.7815L25.334 18.0888C25.2067 18.4976 24.9503 18.8553 24.6024 19.1093C24.2546 19.3633 23.8335 19.5002 23.4012 19.5H10.9604C10.5211 19.5002 10.0938 19.3588 9.74295 19.0971C9.39216 18.8355 9.13705 18.4679 9.01624 18.05L4.59477 2.72501C4.53422 2.51554 4.40619 2.33136 4.23016 2.2005C4.05412 2.06963 3.8397 1.99923 3.61952 2.00001H2" stroke="white" stroke-width="3" stroke-linecap="round" stroke-linejoin="round"/>
</g>
</g>
</svg>
