<svg width="34" height="34" viewBox="0 0 34 34" fill="none" xmlns="http://www.w3.org/2000/svg">
<g id="Heart" clip-path="url(#clip0_182_2609)">
<path id="Vector" d="M31.875 12.4844C31.875 21.7812 18.0904 29.3064 17.5034 29.6172C17.3487 29.7004 17.1757 29.744 17 29.744C16.8243 29.744 16.6514 29.7004 16.4967 29.6172C15.9096 29.3064 2.12503 21.7812 2.12503 12.4844C2.12749 10.3012 2.99583 8.20822 4.53954 6.66451C6.08325 5.1208 8.17627 4.25246 10.3594 4.25C13.102 4.25 15.5032 5.42937 17 7.42289C18.4968 5.42937 20.8981 4.25 23.6407 4.25C25.8238 4.25246 27.9168 5.1208 29.4605 6.66451C31.0042 8.20822 31.8726 10.3012 31.875 12.4844Z" fill="#FF0000"/>
</g>
<defs>
<clipPath id="clip0_182_2609">
<rect width="34" height="34" fill="white"/>
</clipPath>
</defs>
</svg>
