<svg width="46" height="42" viewBox="0 0 46 42" fill="none" xmlns="http://www.w3.org/2000/svg">
<g filter="url(#filter0_d_873_1822)">
<path d="M37.875 14.4844C37.875 23.7812 24.0904 31.3064 23.5034 31.6172C23.3486 31.7004 23.1757 31.744 23 31.744C22.8243 31.744 22.6514 31.7004 22.4966 31.6172C21.9096 31.3064 8.125 23.7812 8.125 14.4844C8.12746 12.3012 8.9958 10.2082 10.5395 8.66451C12.0832 7.1208 14.1762 6.25246 16.3594 6.25C19.102 6.25 21.5032 7.42937 23 9.42289C24.4968 7.42937 26.898 6.25 29.6406 6.25C31.8238 6.25246 33.9168 7.1208 35.4605 8.66451C37.0042 10.2082 37.8725 12.3012 37.875 14.4844Z" fill="white"/>
</g>
<defs>
<filter id="filter0_d_873_1822" x="0.125" y="0.25" width="45.75" height="41.4939" filterUnits="userSpaceOnUse" color-interpolation-filters="sRGB">
<feFlood flood-opacity="0" result="BackgroundImageFix"/>
<feColorMatrix in="SourceAlpha" type="matrix" values="0 0 0 0 0 0 0 0 0 0 0 0 0 0 0 0 0 0 127 0" result="hardAlpha"/>
<feMorphology radius="2" operator="dilate" in="SourceAlpha" result="effect1_dropShadow_873_1822"/>
<feOffset dy="2"/>
<feGaussianBlur stdDeviation="3"/>
<feComposite in2="hardAlpha" operator="out"/>
<feColorMatrix type="matrix" values="0 0 0 0 0 0 0 0 0 0 0 0 0 0 0 0 0 0 0.3 0"/>
<feBlend mode="normal" in2="BackgroundImageFix" result="effect1_dropShadow_873_1822"/>
<feBlend mode="normal" in="SourceGraphic" in2="effect1_dropShadow_873_1822" result="shape"/>
</filter>
</defs>
</svg>
