<svg width="27" height="24" viewBox="0 0 27 24" fill="none" xmlns="http://www.w3.org/2000/svg">
<path id="bot&#195;&#163;o voltar" d="M0.93934 10.9393C0.353553 11.5251 0.353553 12.4749 0.93934 13.0607L10.4853 22.6066C11.0711 23.1924 12.0208 23.1924 12.6066 22.6066C13.1924 22.0208 13.1924 21.0711 12.6066 20.4853L4.12132 12L12.6066 3.51472C13.1924 2.92893 13.1924 1.97919 12.6066 1.3934C12.0208 0.807611 11.0711 0.807611 10.4853 1.3934L0.93934 10.9393ZM25 13.5C25.8284 13.5 26.5 12.8284 26.5 12C26.5 11.1716 25.8284 10.5 25 10.5L25 13.5ZM2 13.5L25 13.5L25 10.5L2 10.5L2 13.5Z" fill="#D95A11"/>
</svg>
