<svg width="46" height="46" viewBox="0 0 46 46" fill="none" xmlns="http://www.w3.org/2000/svg">
<g id="op&#195;&#167;&#195;&#163;o doces">
<path id="Vector" d="M43 23.2206C40.3478 23.2206 37.8043 22.167 35.9289 20.2916C34.0536 18.4163 33 15.8727 33 13.2206C30.3478 13.2206 27.8043 12.167 25.9289 10.2916C24.0536 8.41628 23 5.87275 23 3.22058C19.0444 3.22058 15.1776 4.39356 11.8886 6.59119C8.59962 8.78882 6.03617 11.9124 4.52242 15.5669C3.00867 19.2214 2.6126 23.2428 3.3843 27.1224C4.15601 31.002 6.06082 34.5657 8.85787 37.3627C11.6549 40.1598 15.2186 42.0646 19.0982 42.8363C22.9778 43.608 26.9992 43.2119 30.6537 41.6982C34.3082 40.1844 37.4318 37.621 39.6294 34.332C41.827 31.043 43 27.1762 43 23.2206Z" fill="#D95A11" stroke="white" stroke-width="5" stroke-linecap="round" stroke-linejoin="round"/>
<path id="Vector_2" d="M28.8333 35.7205C30.6743 35.7205 32.1667 34.2281 32.1667 32.3872C32.1667 30.5462 30.6743 29.0538 28.8333 29.0538C26.9924 29.0538 25.5 30.5462 25.5 32.3872C25.5 34.2281 26.9924 35.7205 28.8333 35.7205Z" fill="white"/>
<path id="Vector_3" d="M15.5003 34.054C17.3413 34.054 18.8337 32.5616 18.8337 30.7207C18.8337 28.8797 17.3413 27.3873 15.5003 27.3873C13.6594 27.3873 12.167 28.8797 12.167 30.7207C12.167 32.5616 13.6594 34.054 15.5003 34.054Z" fill="white"/>
<path id="Vector_4" d="M13.8333 22.3872C15.6743 22.3872 17.1667 20.8949 17.1667 19.0539C17.1667 17.213 15.6743 15.7206 13.8333 15.7206C11.9924 15.7206 10.5 17.213 10.5 19.0539C10.5 20.8949 11.9924 22.3872 13.8333 22.3872Z" fill="white"/>
<path id="Vector_5" d="M23.8333 25.7205C25.6743 25.7205 27.1667 24.2281 27.1667 22.3872C27.1667 20.5462 25.6743 19.0538 23.8333 19.0538C21.9924 19.0538 20.5 20.5462 20.5 22.3872C20.5 24.2281 21.9924 25.7205 23.8333 25.7205Z" fill="white"/>
</g>
</svg>
